<svg width="41" height="41" viewBox="0 0 41 41" fill="none" xmlns="http://www.w3.org/2000/svg">
<circle cx="20.5" cy="20.5" r="20.5" fill="#FF7622"/>
<path d="M24.1038 13.6685C24.3158 13.4565 24.5674 13.2884 24.8443 13.1737C25.1212 13.059 25.418 13 25.7177 13C26.0174 13 26.3142 13.059 26.5911 13.1737C26.868 13.2884 27.1196 13.4565 27.3315 13.6685C27.5435 13.8804 27.7116 14.132 27.8263 14.4089C27.941 14.6858 28 14.9826 28 15.2823C28 15.582 27.941 15.8788 27.8263 16.1557C27.7116 16.4326 27.5435 16.6842 27.3315 16.8962L16.4381 27.7896L12 29L13.2104 24.5619L24.1038 13.6685Z" stroke="white" stroke-width="1.31125" stroke-linecap="round" stroke-linejoin="round"/>
</svg>
