<svg width="40" height="40" viewBox="0 0 40 40" fill="none" xmlns="http://www.w3.org/2000/svg">
<circle cx="20" cy="20" r="20" fill="white"/>
<path d="M19.5514 28C24.2175 28 28.0001 24.2174 28.0001 19.5514C28.0001 14.8853 24.2175 11.1027 19.5514 11.1027C14.8854 11.1027 11.1028 14.8853 11.1028 19.5514C11.1028 24.2174 14.8854 28 19.5514 28Z" stroke="#FB6D3A" stroke-width="1.67823" stroke-linecap="round" stroke-linejoin="round"/>
<path d="M17.0931 17.0166C17.2918 16.4519 17.6838 15.9758 18.1999 15.6725C18.7159 15.3692 19.3226 15.2584 19.9126 15.3595C20.5025 15.4607 21.0377 15.7675 21.4231 16.2254C21.8086 16.6833 22.0196 17.2629 22.0187 17.8614C22.0187 19.5512 19.4841 20.396 19.4841 20.396" stroke="#FB6D3A" stroke-width="1.67823" stroke-linecap="round" stroke-linejoin="round"/>
<path d="M19.552 23.7339H19.56" stroke="#FB6D3A" stroke-width="1.67823" stroke-linecap="round" stroke-linejoin="round"/>
</svg>
