<svg width="62" height="62" viewBox="0 0 62 62" fill="none" xmlns="http://www.w3.org/2000/svg">
<g clip-path="url(#clip0_824_24)">
<path d="M31 62C48.1208 62 62 48.1208 62 31C62 13.8792 48.1208 0 31 0C13.8792 0 0 13.8792 0 31C0 48.1208 13.8792 62 31 62Z" fill="#273B7A"/>
<path d="M61.3023 37.5591L42.3485 18.605L26.5466 19.8663L18.4747 27.2348L19.5106 43.2637L37.4569 61.3244C49.3614 58.802 58.7408 49.4486 61.3023 37.5591Z" fill="#121149"/>
<path d="M31.6761 28.1506V34.0908H40.9661C39.6486 38.3431 35.6854 41.4319 31.0003 41.4319C25.2389 41.4319 20.5682 36.7614 20.5682 30.9998C20.568 25.2386 25.2384 20.5679 30.9998 20.5679C33.6924 20.5679 36.1386 21.5968 37.9894 23.2715L42.3484 18.6047C39.3582 15.8657 35.3747 14.1932 30.9998 14.1932C21.7178 14.1932 14.193 21.7177 14.193 31C14.193 40.2823 21.7178 47.8069 31 47.8069C40.2822 47.8069 47.8068 40.2822 47.8068 31C47.8068 30.0276 47.7171 29.0772 47.5573 28.1506H31.6761Z" fill="#4285F4"/>
<path d="M31 20.5682C33.6925 20.5682 36.1387 21.5971 37.9895 23.2717L42.3485 18.605C39.3584 15.8657 35.3749 14.1932 31 14.1932C24.563 14.1932 18.9741 17.8134 16.1509 23.1272L21.2799 27.2349C22.7914 23.3368 26.5681 20.5682 31 20.5682Z" fill="#EA4335"/>
<path d="M20.5683 31C20.5683 29.6706 20.8265 28.4041 21.28 27.2349L16.151 23.1273C14.9031 25.4762 14.1932 28.1548 14.1932 31.0001C14.1932 33.8585 14.909 36.5492 16.1677 38.9058L21.2663 34.7276C20.8222 33.5683 20.5683 32.3152 20.5683 31Z" fill="#FBBC05"/>
<path d="M36.7998 39.6639C35.1406 40.777 33.1485 41.432 31.0004 41.432C26.5539 41.432 22.7677 38.6454 21.2661 34.7274L16.1675 38.9056C18.9965 44.2017 24.5764 47.8068 30.9999 47.8068C35.1717 47.8068 38.9852 46.2835 41.9234 43.7673L36.7998 39.6639Z" fill="#34A853"/>
<path d="M47.8068 31C47.8068 30.0276 47.7171 29.0771 47.5573 28.1505H31.6761V34.0908H40.9661C40.2527 36.3935 38.7592 38.3492 36.7997 39.6639L41.9235 43.7674C45.523 40.6847 47.8068 36.1105 47.8068 31Z" fill="#4285F4"/>
</g>
<defs>
<clipPath id="clip0_824_24">
<rect width="62" height="62" fill="white"/>
</clipPath>
</defs>
</svg>
