<svg width="45" height="45" viewBox="0 0 45 45" fill="none" xmlns="http://www.w3.org/2000/svg">
<circle cx="22.5" cy="22.5" r="22.5" fill="#ECF0F4"/>
<path d="M22.4094 23.3257C22.9617 23.3257 23.4094 22.878 23.4094 22.3257C23.4094 21.7734 22.9617 21.3257 22.4094 21.3257C21.8571 21.3257 21.4094 21.7734 21.4094 22.3257C21.4094 22.878 21.8571 23.3257 22.4094 23.3257Z" stroke="#181C2E" stroke-width="2" stroke-linecap="round" stroke-linejoin="round"/>
<path d="M29.4094 23.3257C29.9617 23.3257 30.4094 22.878 30.4094 22.3257C30.4094 21.7734 29.9617 21.3257 29.4094 21.3257C28.8571 21.3257 28.4094 21.7734 28.4094 22.3257C28.4094 22.878 28.8571 23.3257 29.4094 23.3257Z" stroke="#181C2E" stroke-width="2" stroke-linecap="round" stroke-linejoin="round"/>
<path d="M15.4094 23.3257C15.9617 23.3257 16.4094 22.878 16.4094 22.3257C16.4094 21.7734 15.9617 21.3257 15.4094 21.3257C14.8571 21.3257 14.4094 21.7734 14.4094 22.3257C14.4094 22.878 14.8571 23.3257 15.4094 23.3257Z" stroke="#181C2E" stroke-width="2" stroke-linecap="round" stroke-linejoin="round"/>
</svg>
