<svg width="45" height="45" viewBox="0 0 45 45" fill="none" xmlns="http://www.w3.org/2000/svg">
<circle cx="22.5" cy="22.5" r="22.5" fill="white"/>
<path d="M28.8434 17.1493C28.4768 16.7849 28.0417 16.4959 27.5627 16.2987C27.0837 16.1015 26.5704 16 26.0519 16C25.5335 16 25.0201 16.1015 24.5411 16.2987C24.0621 16.4959 23.627 16.7849 23.2605 17.1493L22.4998 17.9051L21.7392 17.1493C20.9988 16.4137 19.9947 16.0004 18.9477 16.0004C17.9007 16.0004 16.8966 16.4137 16.1563 17.1493C15.4159 17.8849 15 18.8827 15 19.923C15 20.9634 15.4159 21.9611 16.1563 22.6967L16.9169 23.4526L22.4998 29L28.0827 23.4526L28.8434 22.6967C29.21 22.3325 29.5009 21.9001 29.6994 21.4242C29.8979 20.9483 30 20.4382 30 19.923C30 19.4079 29.8979 18.8977 29.6994 18.4218C29.5009 17.9459 29.21 17.5135 28.8434 17.1493Z" fill="#FF8400"/>
</svg>
